<svg width="129" height="20" viewBox="0 0 129 20" fill="none" xmlns="http://www.w3.org/2000/svg">
<path d="M10.0611 16.638C8.15796 16.638 6.55348 16.009 5.27524 14.7224C3.99701 13.4359 3.3721 11.8213 3.3721 9.87885C3.3721 7.93555 3.99701 6.32184 5.27524 5.03528C6.55348 3.74872 8.15796 3.0928 10.0611 3.0928C12.155 3.0928 13.895 3.85886 15.2552 5.41872L17.5666 3.42076C15.5814 1.1495 13.0794 0 10.0611 0C7.26036 0 4.86702 0.930043 2.9095 2.81868C0.978761 4.70569 0 7.06098 0 9.87803C0 12.6967 0.978761 15.0504 2.9095 16.9382C4.86702 18.7991 7.26036 19.73 10.0611 19.73C13.025 19.73 15.7446 18.4434 17.5933 16.2545L15.3096 14.2558C13.977 15.8434 12.2093 16.6372 10.0611 16.6372" fill="#101010"/>
<path d="M125.445 16.8403C125.446 16.681 125.509 16.5284 125.621 16.4159C125.733 16.3035 125.885 16.2404 126.043 16.2407C126.202 16.2409 126.354 16.3043 126.466 16.4171C126.577 16.5299 126.64 16.6827 126.64 16.8419C126.64 17.0013 126.577 17.154 126.464 17.2665C126.352 17.3791 126.2 17.4422 126.041 17.442C125.883 17.4417 125.731 17.3782 125.619 17.2654C125.507 17.1526 125.444 16.9996 125.445 16.8403H125.445ZM124.398 16.217L122.858 16.6363C122.85 16.7718 122.852 16.9088 122.86 17.0475L124.398 17.466C124.517 17.4987 124.579 17.6292 124.531 17.7418L123.898 19.2111C123.999 19.3033 124.107 19.3881 124.219 19.4664L125.505 18.5201C125.528 18.503 125.555 18.4912 125.583 18.4854C125.611 18.4795 125.64 18.4799 125.669 18.4864C125.697 18.4929 125.723 18.5054 125.746 18.523C125.769 18.5406 125.788 18.563 125.802 18.5886L126.551 20C126.618 19.9894 126.685 19.9796 126.754 19.9641C126.821 19.9494 126.885 19.9282 126.951 19.9086L127.016 18.3112C127.017 18.2822 127.024 18.2538 127.037 18.2279C127.05 18.202 127.069 18.1793 127.091 18.1612C127.114 18.1431 127.14 18.13 127.168 18.123C127.196 18.1159 127.225 18.115 127.254 18.1203L128.82 18.4124C128.887 18.2925 128.948 18.1701 129 18.0428L127.794 16.9937C127.772 16.9747 127.755 16.9512 127.743 16.9248C127.731 16.8984 127.725 16.8697 127.725 16.8407C127.725 16.8117 127.731 16.783 127.743 16.7566C127.755 16.7302 127.772 16.7067 127.794 16.6877L128.998 15.6402C128.948 15.5129 128.889 15.3889 128.823 15.269L127.254 15.5619C127.225 15.5672 127.196 15.5663 127.168 15.5592C127.14 15.5522 127.114 15.5392 127.091 15.521C127.069 15.5029 127.05 15.4802 127.037 15.4543C127.024 15.4284 127.017 15.4 127.016 15.371L126.951 13.772C126.82 13.7324 126.686 13.7013 126.552 13.679L125.802 15.0928C125.789 15.1185 125.77 15.141 125.747 15.1587C125.724 15.1764 125.697 15.189 125.669 15.1955C125.641 15.202 125.612 15.2023 125.583 15.1964C125.555 15.1905 125.528 15.1785 125.505 15.1613L124.217 14.2141C124.105 14.2925 123.997 14.3789 123.898 14.4703L124.531 15.9404C124.542 15.9671 124.548 15.9959 124.547 16.0249C124.547 16.054 124.54 16.0826 124.527 16.1087C124.515 16.1349 124.497 16.158 124.474 16.1766C124.452 16.1951 124.426 16.2086 124.398 16.2162" fill="#101010"/>
<path d="M34.4481 14.7502C33.1699 16.0359 31.593 16.6926 29.7166 16.6926C27.8403 16.6926 26.2358 16.0359 24.9583 14.7502C23.6801 13.4636 23.0544 11.8491 23.0544 9.90577C23.0544 7.99103 23.6801 6.3765 24.9583 5.06302C26.2358 3.74954 27.8403 3.0928 29.7166 3.0928C31.593 3.0928 33.1699 3.74954 34.4481 5.06302C35.7263 6.3765 36.3788 7.99103 36.3788 9.90577C36.3788 11.8213 35.7263 13.4359 34.4473 14.7502H34.4481ZM29.7174 0C26.9167 0 24.5509 0.957781 22.6202 2.87334C20.6895 4.76117 19.7107 7.11564 19.7107 9.90577C19.7107 12.6975 20.6895 15.0512 22.6202 16.939C24.5509 18.8268 26.9167 19.7846 29.7174 19.7846C32.5182 19.7846 34.9115 18.8268 36.8414 16.939C38.773 15.0512 39.7509 12.6967 39.7509 9.90659C39.7509 7.11483 38.7722 4.76117 36.8147 2.87416C34.8839 0.956965 32.5182 0 29.7174 0Z" fill="#101010"/>
<path d="M60.1021 13.4872L55.86 0.528564H52.8986L48.6565 13.4872L44.1181 0.528564H40.5789L47.1039 19.2926H50.1676L54.3748 6.3862L58.5569 19.2926H61.6474L68.1724 0.528564H64.6413L60.1021 13.4872ZM78.7603 16.2504H74.8817V10.9206H78.7327C80.506 10.9206 81.7801 12.0505 81.7801 13.5581C81.7801 15.0927 80.506 16.2504 78.7611 16.2504H78.7603ZM74.8817 3.5716H77.9576C79.3973 3.5716 80.4232 4.51388 80.4232 5.77923C80.4232 7.15226 79.3974 8.09454 77.9292 8.09454H74.8817V3.5716ZM81.337 9.09067C82.8887 8.5253 83.8026 7.12534 83.8026 5.32155C83.8026 3.94851 83.2767 2.79085 82.2233 1.90323C81.1982 0.985428 79.9241 0.528564 78.4007 0.528564H71.4187V19.2926H79.3422C81.0327 19.2926 82.418 18.7811 83.5258 17.7311C84.662 16.6811 85.2155 15.335 85.2155 13.7466C85.2155 11.3505 83.8026 9.52061 81.3362 9.08985L81.337 9.09067Z" fill="#101010"/>
<path d="M102.555 14.7502C101.277 16.0359 99.6997 16.6926 97.8234 16.6926C95.947 16.6926 94.3425 16.0359 93.0651 14.7502C91.7869 13.4636 91.1611 11.8491 91.1611 9.90577C91.1611 7.99103 91.7869 6.3765 93.0651 5.06302C94.3425 3.74954 95.947 3.0928 97.8234 3.0928C99.6997 3.0928 101.277 3.74954 102.555 5.06302C103.833 6.3765 104.486 7.99103 104.486 9.90577C104.486 11.8213 103.833 13.4359 102.554 14.7502H102.555ZM97.8242 0C95.0226 0 92.6577 0.957781 90.7261 2.87334C88.7954 4.76117 87.8167 7.11564 87.8167 9.90577C87.8167 12.6975 88.7954 15.0512 90.7261 16.939C92.6569 18.8268 95.0226 19.7846 97.8234 19.7846C100.624 19.7846 103.017 18.8268 104.948 16.939C106.879 15.0512 107.858 12.6967 107.858 9.90659C107.858 7.11483 106.879 4.76117 104.92 2.87416C102.99 0.956965 100.624 0 97.8234 0" fill="#101010"/>
<path d="M122.804 0.528564L117.254 9.78004L111.683 0.528564H107.94L115.349 12.7537L111.426 19.2926H115.235L118.995 13.0874L126.606 0.528564H122.804Z" fill="#101010"/>
</svg>
